<?xml version="1.0" encoding="utf-8"?>
<!-- Generator: Adobe Illustrator 21.1.0, SVG Export Plug-In . SVG Version: 6.00 Build 0)  -->
<!DOCTYPE svg PUBLIC "-//W3C//DTD SVG 1.1//EN" "http://www.w3.org/Graphics/SVG/1.1/DTD/svg11.dtd">
<svg version="1.1" id="Layer_1" xmlns="http://www.w3.org/2000/svg" xmlns:xlink="http://www.w3.org/1999/xlink" x="0px" y="0px"
	 viewBox="0 0 175 247.4" enable-background="new 0 0 175 247.4" xml:space="preserve">
<g>
	<path d="M157.5,66.7L157.5,66.7C144,39.9,117,23.3,87,23.3c-12.3,0-24.2,2.8-35.3,8.3c-18.6,9.4-32.5,25.7-39.2,46
		c-6.5,20-5,41.8,4.2,59.8c10.4,20,56.2,76,61.4,82.3c2,2.7,5.3,4.4,8.9,4.4c3.5,0,6.6-1.5,8.9-4.3c18.6-22.7,52.6-65.5,61.6-82.3
		C169.4,116.1,169.4,90.2,157.5,66.7z M148.5,103.9c0,33.6-27.4,61-61,61s-61-27.4-61-61s27.4-61,61-61S148.5,70.2,148.5,103.9z"/>
	<circle fill="#FFFFFF" stroke="#000000" stroke-width="3" stroke-miterlimit="10" cx="87.5" cy="103.9" r="62.5"/>
</g>
</svg>
